Coordinates
version=1
nRows=29
nColumns=24
inDegrees=yes

Units are S.I. units (second, meters, Newtons, ...)
Angles are in degrees.

endheader
time	pelvis_tilt	pelvis_list	pelvis_rotation	pelvis_tx	pelvis_ty	pelvis_tz	hip_flexion_r	hip_adduction_r	hip_rotation_r	knee_angle_r	ankle_angle_r	subtalar_angle_r	mtp_angle_r	hip_flexion_l	hip_adduction_l	hip_rotation_l	knee_angle_l	ankle_angle_l	subtalar_angle_l	mtp_angle_l	lumbar_extension	lumbar_bending	lumbar_rotation
      1.33333333	      6.02721024	      4.69811936	     -3.60552174	      0.22072463	      1.07647463	      0.31747186	     10.40314228	     -5.49799624	      1.33413130	    -68.29239776	     -3.70919521	    -14.32123964	      5.44655532	      0.92277083	      8.90470169	     -6.90600225	     -8.34689674	      2.44557689	      2.38843291	      2.04968071	     -3.29389932	     -2.02823094	     -0.12391634
      1.33750000	      6.03625337	      4.64830406	     -3.55849105	      0.22568422	      1.07699312	      0.31734731	     10.99633929	     -5.34350006	      1.51403965	    -68.20143009	     -3.05616760	    -14.37960078	      5.34216718	      0.55226265	      8.86879042	     -6.90689900	     -8.24772045	      2.67756235	      2.48853034	      2.01109499	     -3.33029432	     -2.00146084	     -0.18978899
      1.34166667	      6.03969147	      4.61500082	     -3.53208946	      0.23064093	      1.07747452	      0.31715124	     11.59196631	     -5.21470800	      1.71797469	    -68.05022408	     -2.53044565	    -14.34623071	      5.22724197	      0.17821581	      8.86396520	     -6.85654820	     -8.11713462	      2.86585157	      2.61491493	      1.96543015	     -3.37424762	     -1.94024925	     -0.26131238
      1.34583333	      6.04666318	      4.58704457	     -3.50044120	      0.23559672	      1.07794348	      0.31697388	     12.16628655	     -5.08830051	      1.91772633	    -67.83483333	     -2.04097873	    -14.30486699	      5.11545043	     -0.19959949	      8.86412093	     -6.79428237	     -7.98641342	      3.03959428	      2.71462170	      1.91810296	     -3.42152145	     -1.89221806	     -0.32745020
      1.35000000	      6.06772871	      4.55678165	     -3.46736552	      0.24053590	      1.07840762	      0.31680754	     12.70818562	     -4.95795395	      2.11346819	    -67.55672326	     -1.56348346	    -14.23704356	      5.00297794	     -0.59660890	      8.86302130	     -6.71816543	     -7.84358546	      3.20791901	      2.79807391	      1.86742984	     -3.48438423	     -1.83748259	     -0.39404555
      1.35416667	      6.07122468	      4.52121664	     -3.42140569	      0.24545566	      1.07883274	      0.31669881	     13.25048316	     -4.81196693	      2.30733409	    -67.19335214	     -1.37916442	    -14.24183229	      4.97710395	     -0.97363444	      8.84773711	     -6.61111428	     -7.70279977	      3.26404941	      2.84868920	      1.85601670	     -3.56462308	     -1.80188608	     -0.42666786
      1.35833333	      6.09944797	      4.49898524	     -3.38028183	      0.25043095	      1.07925609	      0.31650193	     13.74727004	     -4.69590919	      2.48110626	    -66.81719756	     -0.68256541	    -14.12983734	      4.87272134	     -1.38317973	      8.86071607	     -6.54321306	     -7.55471013	      3.52653457	      2.90165408	      1.80390230	     -3.60496984	     -1.73922044	     -0.50791824
      1.36250000	      6.10638697	      4.47307097	     -3.34743181	      0.25533967	      1.07962567	      0.31643842	     14.25760665	     -4.55367867	      2.68625156	    -66.34623039	     -0.49127058	    -14.10289601	      4.84365240	     -1.77033791	      8.85723452	     -6.42468635	     -7.39368539	      3.58545098	      2.95466740	      1.78937148	     -3.68101610	     -1.71101366	     -0.54442322
      1.36666667	      6.10976088	      4.44495183	     -3.31029299	      0.26032014	      1.07997602	      0.31635656	     14.74513829	     -4.41299897	      2.87787086	    -65.82018184	     -0.21401238	    -14.08399085	      4.81690377	     -2.16133693	      8.85286858	     -6.32234056	     -7.22887462	      3.68474287	      2.98678781	      1.77549120	     -3.74044299	     -1.68036476	     -0.58309955
      1.37083333	      6.17340336	      4.44488894	     -3.29660337	      0.26530373	      1.08035228	      0.31614844	     15.15847972	     -4.32521782	      3.06618075	    -65.27739519	      0.38736413	    -13.97466288	      4.75283283	     -2.63042799	      8.90705102	     -6.19019959	     -7.02903257	      3.92146739	      3.00882725	      1.73888554	     -3.75320197	     -1.59825286	     -0.66469071
      1.37500000	      6.19761506	      4.41753243	     -3.24096310	      0.27027306	      1.08067627	      0.31604749	     15.58083697	     -4.19309673	      3.23194505	    -64.64259732	      0.79720915	    -13.80931774	      4.68296999	     -3.04909364	      8.90684450	     -6.05863415	     -6.85279995	      4.07432172	      3.02324329	      1.69613277	     -3.83275053	     -1.57038515	     -0.74295120
      1.37916667	      6.17010700	      4.40289219	     -3.16278889	      0.27518840	      1.08089577	      0.31604143	     16.04637962	     -4.06276403	      3.38223891	    -63.94466629	      0.95758353	    -13.78594288	      4.66262394	     -3.38973908	      8.90252756	     -5.99807937	     -6.71426154	      4.12622648	      3.02728742	      1.68381716	     -3.92947053	     -1.60151960	     -0.76827560
      1.38333333	      6.23770387	      4.37844556	     -3.08779191	      0.28019446	      1.08122829	      0.31584977	     16.37253141	     -3.95679265	      3.50109726	    -63.20533900	      1.53685221	    -13.59817478	      4.55000789	     -3.86870692	      8.91762286	     -5.81827577	     -6.51897518	      4.36843743	      2.94599986	      1.60932338	     -3.99952183	     -1.53112095	     -0.90153576
      1.38750000	      6.21175966	      4.38026673	     -3.05306041	      0.28512741	      1.08136553	      0.31588312	     16.81052506	     -3.83930144	      3.68716245	    -62.41019146	      1.65843283	    -13.59578307	      4.52835421	     -4.22823983	      8.94103533	     -5.71573157	     -6.33610848	      4.40231836	      2.96425991	      1.59581897	     -4.06699378	     -1.56930276	     -0.92728078
      1.39166667	      6.19809154	      4.37758532	     -3.02223166	      0.29013172	      1.08149997	      0.31589205	     17.20511408	     -3.72500731	      3.86336333	    -61.55532260	      1.83439955	    -13.61038857	      4.50474630	     -4.61592306	      8.96395274	     -5.60194449	     -6.13558834	      4.47362461	      2.96099277	      1.58093096	     -4.09082443	     -1.58394964	     -0.95927672
      1.39583333	      6.30399742	      4.34610902	     -2.92581806	      0.29516625	      1.08182172	      0.31565157	     17.41719699	     -3.63219333	      3.91971213	    -60.62906375	      2.25345893	    -13.59529431	      4.38253569	     -5.15481504	      8.97795245	     -5.34700628	     -5.90495853	      4.70440774	      2.76883083	      1.49515780	     -4.18286661	     -1.46643665	     -1.12326569
      1.40000000	      6.26379455	      4.36412917	     -2.89552010	      0.30011871	      1.08184245	      0.31571617	     17.81069146	     -3.53733611	      4.09323840	    -59.67638253	      2.35056627	    -13.61582131	      4.36049094	     -5.50518429	      9.01753088	     -5.25140062	     -5.70970474	      4.73036218	      2.77309264	      1.48059194	     -4.23873801	     -1.53900406	     -1.14466617
      1.40416667	      6.30521532	      4.35862283	     -2.87421136	      0.30520713	      1.08197868	      0.31565056	     18.07207894	     -3.44437004	      4.22455150	    -58.64969795	      2.50332735	    -13.70336458	      4.30304769	     -5.98355380	      9.05565031	     -5.06519762	     -5.44694641	      4.83102604	      2.70089148	      1.44101861	     -4.17778931	     -1.52421591	     -1.21422329
      1.40833333	      6.31752446	      4.35070432	     -2.81321845	      0.31026163	      1.08205664	      0.31560396	     18.33687194	     -3.35271219	      4.31846866	    -57.56218588	      2.61806685	    -13.83491084	      4.23216874	     -6.41831734	      9.07703029	     -4.87339643	     -5.21641935	      4.93529086	      2.57963935	      1.39109353	     -4.20619014	     -1.51046578	     -1.30313853
      1.41250000	      6.44811117	      4.33362167	     -2.69893360	      0.31515291	      1.08227821	      0.31541043	     18.44620691	     -3.28869879	      4.32399438	    -56.39768177	      2.56970395	    -14.12667695	      3.86463142	     -6.97732722	      9.09565157	     -4.55527901	     -4.97664364	      4.91528889	      2.14592695	      1.11253876	     -4.49001479	     -1.53770057	     -1.64978453
      1.41666667	      6.38781977	      4.35061226	     -2.68192070	      0.32024668	      1.08216768	      0.31545869	     18.76194560	     -3.20976922	      4.45438870	    -55.22821889	      2.66831693	    -14.22187560	      3.81356796	     -7.33332570	      9.14106246	     -4.43415044	     -4.74046427	      5.00734986	      2.14787644	      1.07750737	     -4.41703680	     -1.54864011	     -1.66117721
      1.42083333	      6.34741003	      4.35555043	     -2.62898115	      0.32534486	      1.08207458	      0.31545282	     19.02011627	     -3.13589772	      4.52652538	    -53.98748730	      2.69630700	    -14.41328280	      3.74689507	     -7.71155304	      9.16935505	     -4.29154628	     -4.51107096	      5.11697516	      2.09175386	      1.03178664	     -4.35152488	     -1.54977207	     -1.69019002
      1.42500000	      6.23279855	      4.39734563	     -2.60070022	      0.33036785	      1.08181435	      0.31553153	     19.36317083	     -3.08636600	      4.62356796	    -52.73404888	      2.76364216	    -14.49068534	      3.72808702	     -7.98374516	      9.23294944	     -4.25358104	     -4.30713803	      5.16173380	      2.07352154	      1.01992422	     -4.43187905	     -1.63464823	     -1.69681444
      1.42916667	      6.25823034	      4.34956098	     -2.45995285	      0.33555625	      1.08185051	      0.31536522	     19.45233801	     -3.00231470	      4.55359199	    -51.30653293	      2.44980543	    -15.17132931	      3.56728599	     -8.46383627	      9.19767378	     -3.90109364	     -4.05772926	      5.32106884	      1.83554147	      0.90963096	     -4.37663040	     -1.44345655	     -1.84654718
      1.43333333	      6.21122274	      4.38655625	     -2.45538515	      0.34056064	      1.08161420	      0.31549996	     19.67033049	     -2.95111212	      4.66473876	    -49.93397802	      2.46570215	    -15.31064214	      3.52177248	     -8.82187320	      9.25696926	     -3.82548576	     -3.83740830	      5.34942566	      1.79652176	      0.87778974	     -4.30692886	     -1.61397870	     -1.85812718
      1.43750000	      6.19005524	      4.36809933	     -2.36152793	      0.34574795	      1.08149446	      0.31536987	     19.78715653	     -2.89638534	      4.59371372	    -48.43820253	      2.12473056	    -15.92654699	      3.35237264	     -9.24086829	      9.25750367	     -3.58751205	     -3.58079835	      5.43097409	      1.60305051	      0.75903016	     -4.33832774	     -1.48108951	     -2.02073327
      1.44166667	      6.13241308	      4.40396698	     -2.34849522	      0.35080225	      1.08120338	      0.31547695	     19.96082766	     -2.85856356	      4.65501481	    -46.95722964	      2.08646457	    -16.12784480	      3.27944039	     -9.59060282	      9.31385232	     -3.51351327	     -3.36172316	      5.47551416	      1.54575174	      0.70763327	     -4.24750142	     -1.62825606	     -2.04738457
      1.44583333	      6.06214038	      4.39736668	     -2.27368508	      0.35601105	      1.08093111	      0.31538960	     20.09142098	     -2.81471881	      4.57209822	    -45.37972112	      1.72858844	    -16.71479180	      3.10328116	     -9.95352341	      9.32476533	     -3.31836603	     -3.10840290	      5.56386230	      1.40400949	      0.58538784	     -4.24241321	     -1.53373990	     -2.18164054
      1.45000000	      5.92774254	      4.46852949	     -2.28117423	      0.36100170	      1.08043372	      0.31557222	     20.32244352	     -2.80721138	      4.64362286	    -43.84070766	      1.79376612	    -16.77919721	      3.08144932	    -10.19578976	      9.41333573	     -3.32342788	     -2.92879284	      5.59953142	      1.38032055	      0.57118985	     -4.25516239	     -1.71178823	     -2.16847852
